Motion_pl08
version=1
nRows=9
nColumns=43
inDegrees=yes
endheader
time	pelvis_tilt	pelvis_list	pelvis_rotation	pelvis_tx	pelvis_ty	pelvis_tz	hip_flexion_r	hip_adduction_r	hip_rotation_r	knee_angle_r	ankle_angle_r	subtalar_angle_r	mtp_angle_r	hip_flexion_l	hip_adduction_l	hip_rotation_l	knee_angle_l	ankle_angle_l	subtalar_angle_l	mtp_angle_l	lumbar_extension	lumbar_bending	lumbar_rotation	neck_flexion	neck_lateral_bending	neck_rotation	arm_flex_r	arm_add_r	arm_rot_r	elbow_flex_r	pro_sup_r	wrist_flex_r	wrist_dev_r	hand_finger_flex_r	arm_flex_l	arm_add_l	arm_rot_l	elbow_flex_l	pro_sup_l	wrist_flex_l	wrist_dev_l	hand_finger_flex_l
      1.82000000	      1.85340443	    -19.12010512	     88.19164082	     -0.01016403	      1.64970557	      1.38950016	     68.45971593	     -8.59070953	      8.20799181	   -128.23716628	     -7.16375322	      1.11927148	     28.24862074	     56.45342334	    -11.48929990	      5.38591145	   -131.61288635	      7.22404745	      7.06486589	     22.72620903	    -31.60159431	     -1.40164449	      1.94225605	     12.04404108	      7.24240951	      0.78932973	    107.57601510	     -6.90082997	     28.03821791	     57.08397413	     89.30748346	     -2.70216698	    -10.37936870	    -30.92521080	    105.95556154	     -3.70567741	     18.71565171	     50.84979384	    104.34905567	    -22.02984220	     -5.03842029	      3.46838061
      1.82250000	      1.90313142	    -18.97505083	     88.12618688	     -0.01006066	      1.64978167	      1.38431836	     68.24988512	     -8.50644367	      7.95714343	   -127.88011855	     -6.78126281	      1.49842957	     28.49496390	     56.12875718	    -11.51056707	      5.49557867	   -131.33330588	      5.64620709	      7.01884257	     22.62573547	    -31.36852231	     -1.40791287	      2.08321215	     11.51428924	      7.27022203	      0.81343985	    107.40782574	     -7.03288976	     28.29267024	     56.94378305	     89.47745132	     -2.53765100	    -10.39414172	    -30.77798571	    105.59741790	     -3.73047321	     18.67745149	     50.77569970	    104.40354028	    -22.10123520	     -4.91139121	      3.48707876
      1.82500000	      2.09617768	    -18.81330526	     88.15947575	     -0.01012806	      1.64985111	      1.37927453	     67.95813720	     -8.42374183	      7.60281860	   -127.50079894	     -5.84079827	      2.55158455	     29.27585025	     55.91033655	    -11.56982992	      5.64155399	   -131.08679104	      3.80352470	      6.15950278	     22.57555827	    -31.18101928	     -1.22003426	      2.22475529	     11.14381556	      7.15732420	      0.89492747	    107.28429296	     -7.01567605	     28.41298458	     56.58884656	     89.98977256	     -2.33025405	    -10.62069828	    -30.35169859	    105.22793709	     -3.73761073	     18.49032906	     50.70011787	    104.74624855	    -22.22215329	     -4.67416832	      3.52658806
      1.82750000	      2.04496715	    -18.66270552	     88.06044850	     -0.01008997	      1.64990943	      1.37406013	     67.79288634	     -8.40686088	      7.40771178	   -127.14694086	     -5.34209723	      2.72039776	     29.50293262	     55.56464529	    -11.49542098	      5.70115252	   -130.75062119	      2.34006856	      6.27729170	     22.50187596	    -30.96550210	     -1.30278306	      2.28172555	     10.58515117	      7.19758072	      0.86637105	    107.07125834	     -7.19549443	     28.77516573	     56.53371705	     90.22872923	     -2.12061694	    -10.64302074	    -30.15183269	    104.75167130	     -3.91333968	     18.49455255	     50.81446591	    104.89247032	    -22.23709392	     -4.66397287	      3.54512361
      1.83000000	      2.18187231	    -18.51838055	     88.02204202	     -0.01007866	      1.64990204	      1.36912433	     67.56272649	     -8.27323427	      7.06771726	   -126.78604436	     -4.22034662	      3.41209487	     30.11992988	     55.38526385	    -11.55867795	      5.81092519	   -130.44308100	      0.36100394	      5.52403322	     22.47143472	    -30.77556582	     -1.19103484	      2.41371746	     10.23679322	      7.08131998	      0.97208201	    106.88827322	     -7.14326607	     28.85029726	     56.16087746	     90.86387389	     -1.94827884	    -10.88641538	    -29.66976467	    104.37893010	     -3.93957970	     18.24858643	     50.68864218	    105.36075427	    -22.22646801	     -4.49702776	      3.48687489
      1.83250000	      2.17092854	    -18.35683010	     87.91485560	     -0.01004060	      1.64993129	      1.36408836	     67.37648478	     -8.20663344	      6.81192039	   -126.40718771	     -3.44161886	      3.55298740	     30.46102597	     55.13214279	    -11.52331139	      5.86968969	   -130.08765178	     -1.36649718	      5.39247776	     22.46373799	    -30.59813057	     -1.24141426	      2.49071759	      9.76734426	      7.04384304	      1.00288361	    106.65900759	     -7.24904909	     29.09632910	     55.97271009	     91.38032471	     -1.73771997	    -11.02364699	    -29.28656114	    103.92090473	     -4.05627800	     18.09843968	     50.72130150	    105.71731489	    -22.12218588	     -4.45767608	      3.42501557
      1.83500000	      2.26817558	    -18.18154553	     87.87558179	     -0.01008467	      1.65008212	      1.35904027	     67.12809412	     -8.11831563	      6.43143653	   -125.97716812	     -2.68600681	      3.69161850	     30.91146804	     54.89044779	    -11.55110082	      5.94982074	   -129.68479276	     -3.03440289	      4.80095518	     22.65642131	    -30.46825819	     -1.16226950	      2.59714212	      9.35597538	      6.99641950	      1.03196845	    106.38781184	     -7.32677584	     29.17722194	     55.75595015	     92.39284811	     -1.45976968	    -11.39663563	    -28.59018135	    103.37140564	     -4.19242691	     17.78265567	     50.88292840	    106.47239075	    -21.72238607	     -4.48553342	      3.19363400
      1.83750000	      2.17219126	    -18.02205197	     87.71992992	     -0.00998985	      1.65010600	      1.35409966	     67.02421718	     -8.07922467	      6.21352831	   -125.60349240	     -2.11494107	      3.43682620	     30.95085309	     54.63330726	    -11.49019395	      5.95346077	   -129.23467915	     -4.42190181	      5.17343072	     22.61920842	    -30.32242571	     -1.31339997	      2.67255049	      8.91653351	      6.99819214	      1.04563774	    106.12947665	     -7.55023544	     29.51151702	     55.72720670	     92.61227850	     -1.24909892	    -11.41114760	    -28.43021063	    102.91729157	     -4.34494147	     17.76318220	     50.94199759	    106.58242530	    -21.63084423	     -4.50446991	      3.15268365
      1.84000000	      2.13565640	    -17.84967422	     87.56925811	     -0.00988809	      1.65015421	      1.34920597	     66.87668109	     -7.97078796	      5.93352087	   -125.19171446	     -1.51415162	      3.05498688	     30.94388602	     54.41278882	    -11.48127698	      5.96107019	   -128.77098385	     -5.81557015	      5.38062627	     22.59417634	    -30.20828152	     -1.41382276	      2.78788082	      8.55963844	      6.98562000	      1.07321882	    105.83731272	     -7.74889484	     29.73963466	     55.66816148	     92.90888151	     -1.01241397	    -11.51952021	    -28.25106315	    102.47147360	     -4.48074835	     17.70087212	     50.95728534	    106.73339269	    -21.46777281	     -4.53838167	      3.10628190
